<?xml version="1.0" standalone="no"?>
<!DOCTYPE svg PUBLIC "-//W3C//DTD SVG 20010904//EN"
 "http://www.w3.org/TR/2001/REC-SVG-20010904/DTD/svg10.dtd">
<svg version="1.0" xmlns="http://www.w3.org/2000/svg"
 width="960.000000pt" height="960.000000pt" viewBox="0 0 960.000000 960.000000"
 preserveAspectRatio="xMidYMid meet">
<metadata>
Created by potrace 1.14, written by Peter Selinger 2001-2017
</metadata>
<g transform="translate(0.000000,960.000000) scale(0.100000,-0.100000)"
fill="#000000" stroke="none">
<path d="M485 8709 c-72 -16 -129 -41 -195 -85 -137 -91 -223 -225 -246 -384
-8 -58 -8 -6808 1 -6877 11 -93 48 -181 111 -263 38 -50 97 -110 108 -110 3 0
24 -13 48 -28 24 -16 70 -39 103 -53 l60 -24 3138 -3 c3448 -2 3198 -7 3327
57 70 35 74 38 151 114 47 47 111 139 115 166 0 3 5 17 11 31 10 23 17 52 28
109 2 13 5 126 5 252 1 205 3 228 18 232 9 2 27 0 39 -4 12 -5 25 -4 28 1 3 6
15 6 30 0 15 -6 27 -6 30 0 4 7 13 6 26 0 13 -8 19 -7 19 0 0 7 6 8 19 1 10
-6 21 -8 24 -4 8 8 85 8 93 0 4 -3 15 -2 25 3 10 6 20 6 23 2 3 -5 28 -6 56
-2 28 4 53 3 56 -2 3 -4 13 -4 23 2 10 5 21 6 25 3 8 -8 74 -8 82 0 3 3 16 2
29 -3 13 -5 25 -7 28 -4 2 3 31 6 63 9 65 4 128 24 183 57 42 26 121 108 121
125 0 7 4 13 9 13 5 0 11 8 14 17 3 10 13 38 23 63 14 39 17 90 18 360 l2 314
24 6 c14 4 40 3 58 -1 17 -4 32 -3 32 1 0 4 15 5 33 3 62 -9 72 -9 82 -4 13 7
103 4 115 -4 6 -3 10 -3 10 2 0 8 95 8 157 0 18 -2 34 -2 37 0 3 3 38 5 78 6
80 0 175 27 221 61 48 36 127 118 121 127 -3 5 -1 9 4 9 5 0 12 8 15 18 3 9
13 37 23 62 15 39 17 88 19 340 1 301 3 316 41 355 53 52 120 190 150 305 22
84 22 93 19 710 -1 344 -3 633 -4 643 -1 9 -7 17 -12 17 -6 0 -8 4 -4 9 4 8
-1 29 -30 119 -3 7 -3 14 -2 16 1 2 -6 13 -16 24 -10 11 -20 28 -21 37 -1 10
-29 53 -61 97 l-59 80 -1 271 c-1 150 -5 288 -9 307 -25 108 -109 216 -207
266 -50 25 -80 33 -146 39 -24 2 -47 6 -52 9 -5 4 -12 2 -15 -3 -4 -5 -18 -6
-34 -2 -15 5 -37 5 -49 0 -12 -4 -25 -4 -28 1 -3 5 -18 5 -33 1 -15 -5 -36 -5
-47 -1 -11 4 -30 4 -41 -1 -12 -4 -25 -5 -28 -1 -6 5 -86 6 -112 1 -5 -1 -13
0 -19 1 -5 1 -48 1 -95 1 -47 0 -92 2 -100 4 -13 4 -15 44 -15 287 1 321 -4
367 -44 446 -35 69 -70 108 -136 153 -65 45 -109 59 -194 64 -39 3 -74 5 -78
6 -4 1 -12 0 -18 -1 -5 -1 -28 -1 -50 -1 -47 1 -174 0 -227 -1 -21 -1 -40 1
-44 5 -3 3 -16 2 -28 -2 -11 -4 -34 -5 -51 -1 -16 3 -47 3 -68 -1 -20 -3 -40
-3 -42 2 -3 4 -19 4 -35 -1 -16 -5 -32 -5 -35 -1 -2 5 -16 6 -30 3 l-25 -4 -1
273 c0 151 -2 281 -4 289 -1 8 -5 29 -8 45 -12 73 -67 178 -132 253 -34 40
-127 108 -180 131 -121 54 75 51 -3285 50 -1809 -1 -3132 -5 -3155 -10z"/>
</g>
</svg>
