<svg width="98" height="98" viewBox="0 0 98 98" fill="none" xmlns="http://www.w3.org/2000/svg">
<rect width="98" height="98" rx="10" fill="url(#paint0_linear_411_2)"/>
<mask id="path-2-inside-1_411_2" fill="white">
<rect x="12" y="28" width="73" height="46" rx="3"/>
</mask>
<rect x="12" y="28" width="73" height="46" rx="3" fill="white" stroke="white" stroke-width="8" mask="url(#path-2-inside-1_411_2)"/>
<path d="M65 51C65 59.8366 57.8366 67 49 67C40.1634 67 33 59.8366 33 51C33 42.1634 40.1634 35 49 35C57.8366 35 65 42.1634 65 51Z" fill="url(#paint1_linear_411_2)"/>
<rect x="25" y="24" width="10" height="4" fill="white"/>
<rect x="68" y="25" width="13" height="4" fill="white"/>
<path d="M17 26H22V29H17V26Z" fill="white"/>
<path d="M17 26H22V29H17V26Z" fill="white"/>
<defs>
<linearGradient id="paint0_linear_411_2" x1="4" y1="-24.5" x2="164.5" y2="190" gradientUnits="userSpaceOnUse">
<stop offset="0.161458" stop-color="#0888A4"/>
<stop offset="0.6875" stop-color="#16F7C5"/>
<stop offset="0.723958" stop-color="#17FFC7"/>
</linearGradient>
<linearGradient id="paint1_linear_411_2" x1="34" y1="35" x2="60" y2="62.5" gradientUnits="userSpaceOnUse">
<stop offset="0.25" stop-color="#0A91A7"/>
<stop offset="0.739583" stop-color="#16F7C5"/>
</linearGradient>
</defs>
</svg>
