<svg xmlns="http://www.w3.org/2000/svg" width="98" height="98" fill="none" viewBox="0 0 98 98"><rect width="98" height="98" fill="url(#paint0_linear_411_2)" rx="10"/><mask id="path-2-inside-1_411_2" fill="#fff"><rect width="73" height="46" x="12" y="28" rx="3"/></mask><rect width="73" height="46" x="12" y="28" fill="#fff" stroke="#fff" stroke-width="8" mask="url(#path-2-inside-1_411_2)" rx="3"/><path fill="url(#paint1_linear_411_2)" d="M65 51C65 59.8366 57.8366 67 49 67C40.1634 67 33 59.8366 33 51C33 42.1634 40.1634 35 49 35C57.8366 35 65 42.1634 65 51Z"/><rect width="10" height="4" x="25" y="24" fill="#fff"/><rect width="13" height="4" x="68" y="25" fill="#fff"/><path fill="#fff" d="M17 26H22V29H17V26Z"/><path fill="#fff" d="M17 26H22V29H17V26Z"/><defs><linearGradient id="paint0_linear_411_2" x1="4" x2="164.5" y1="-24.5" y2="190" gradientUnits="userSpaceOnUse"><stop offset=".161" stop-color="#0888A4"/><stop offset=".688" stop-color="#16F7C5"/><stop offset=".724" stop-color="#17FFC7"/></linearGradient><linearGradient id="paint1_linear_411_2" x1="34" x2="60" y1="35" y2="62.5" gradientUnits="userSpaceOnUse"><stop offset=".25" stop-color="#0A91A7"/><stop offset=".74" stop-color="#16F7C5"/></linearGradient></defs></svg>